<?xml version="1.0" standalone="no"?>
<!DOCTYPE svg PUBLIC "-//W3C//DTD SVG 20010904//EN"
 "http://www.w3.org/TR/2001/REC-SVG-20010904/DTD/svg10.dtd">
<svg version="1.0" xmlns="http://www.w3.org/2000/svg"
 width="200.000000pt" height="200.000000pt" viewBox="0 0 200.000000 200.000000"
 preserveAspectRatio="xMidYMid meet">
<metadata>
Created by potrace 1.11, written by Peter Selinger 2001-2013
</metadata>
<g transform="translate(0.000000,200.000000) scale(0.100000,-0.100000)"
fill="#000000" stroke="none">
<path d="M960 1840 c-15 -15 -18 -25 -11 -43 7 -18 -1 -43 -36 -117 -24 -52
-47 -102 -50 -112 -7 -24 -67 -32 -106 -14 -17 8 -77 35 -132 60 -87 39 -101
49 -108 75 -18 72 -111 82 -144 16 -5 -11 -8 -26 -7 -32 1 -7 2 -20 3 -28 1
-20 59 -55 80 -48 9 3 26 9 37 15 18 8 46 0 153 -49 72 -33 128 -63 125 -66
-4 -3 -6 -24 -6 -45 1 -35 -6 -45 -67 -106 -65 -64 -68 -66 -98 -55 -52 18
-132 -7 -147 -46 -7 -21 -215 73 -216 97 0 23 -39 58 -65 58 -12 0 -31 -9 -43
-20 -56 -53 9 -137 78 -100 14 7 40 -1 113 -35 52 -25 99 -45 104 -45 6 0 8
-10 6 -22 -2 -13 5 -40 15 -60 l19 -37 -50 -76 c-32 -48 -58 -77 -74 -81 -46
-12 -41 -85 6 -92 30 -5 51 15 51 49 0 18 19 56 51 103 50 73 51 74 89 69 24
-3 50 1 73 12 l36 17 61 -43 c33 -23 60 -47 59 -53 -7 -55 21 -95 70 -101 28
-3 40 2 67 29 27 27 60 42 162 75 71 22 134 41 139 41 5 0 18 -9 28 -20 22
-25 79 -36 111 -21 22 10 30 5 89 -50 36 -34 62 -65 59 -70 -3 -5 6 -20 21
-35 18 -18 31 -23 48 -19 69 21 58 110 -15 108 -26 -1 -45 9 -88 47 l-55 48 0
60 c0 51 -4 64 -24 81 -13 12 -30 21 -38 21 -15 0 -15 -2 -15 165 0 165 0 162
16 168 7 3 68 -27 134 -66 l121 -72 98 -139 c54 -76 98 -145 98 -154 0 -23 32
-39 52 -26 28 18 26 32 -10 66 -39 37 -189 246 -191 264 -1 7 36 45 82 83 65
55 88 70 106 65 30 -7 76 30 76 62 0 29 -32 64 -59 64 -29 0 -62 -32 -64 -62
-2 -21 -23 -45 -91 -102 l-90 -75 -55 31 c-155 89 -176 104 -173 119 1 8 -7
28 -19 43 -18 23 -28 27 -61 24 -36 -3 -49 4 -138 72 -57 43 -99 82 -99 93 -1
21 -36 57 -56 57 -8 0 -24 -9 -35 -20z m166 -161 c88 -69 104 -86 104 -110 0
-18 9 -35 25 -47 l26 -20 -3 -158 c-2 -106 -7 -159 -14 -161 -9 -3 -181 135
-242 194 -7 6 -33 29 -57 49 -25 20 -45 44 -45 53 0 9 -7 24 -14 34 -13 16
-10 28 23 100 51 114 70 147 82 147 6 0 58 -37 115 -81z m83 -534 c-3 -5 -10
-24 -14 -42 -6 -30 -11 -34 -93 -59 -195 -59 -173 -56 -198 -29 -28 30 -68 41
-99 27 -19 -9 -29 -7 -52 11 -15 12 -41 31 -57 42 -27 18 -30 25 -27 67 1 26
-2 55 -8 66 -8 16 1 30 62 90 65 64 76 72 102 67 20 -4 40 1 60 13 l29 18 152
-130 c84 -73 148 -135 143 -141z"/>
<path d="M559 808 c-1 -2 -2 -87 -3 -190 l-2 -188 43 0 c34 0 43 4 44 18 0 9
2 33 2 52 2 36 4 37 73 31 6 -1 26 -23 45 -51 33 -48 36 -50 81 -50 l47 0 -39
56 -40 57 35 38 c30 34 35 46 35 89 0 40 -5 55 -30 83 -38 43 -86 57 -199 57
-50 0 -92 -1 -92 -2z m198 -82 c26 -8 38 -44 29 -80 -7 -28 -44 -43 -101 -42
l-40 2 -1 59 c0 33 1 63 2 66 4 8 83 5 111 -5z"/>
<path d="M1007 706 c-101 -51 -110 -192 -16 -251 61 -39 156 -38 202 3 16 15
16 16 -4 38 -19 20 -24 21 -52 9 -18 -7 -45 -11 -61 -9 -28 3 -66 29 -66 46 0
4 50 8 110 8 l110 0 0 31 c0 106 -124 175 -223 125z m120 -68 c13 -12 23 -25
23 -30 0 -4 -31 -8 -70 -8 -74 0 -83 7 -50 40 26 26 68 25 97 -2z"/>
<path d="M1381 718 c-96 -26 -141 -115 -102 -204 42 -93 185 -120 253 -47 l23
25 -24 19 c-25 20 -51 25 -51 10 0 -9 -31 -23 -55 -26 -5 -1 -22 5 -37 12 -55
27 -44 125 16 142 31 8 64 -1 78 -22 8 -13 68 11 68 27 0 16 -40 52 -65 59
-42 12 -71 14 -104 5z"/>
<path d="M962 258 c1 -105 8 -146 18 -94 3 16 13 34 23 40 16 9 24 5 52 -29
44 -51 54 -41 14 14 l-31 43 28 29 c43 45 22 45 -30 -1 -26 -22 -49 -40 -51
-40 -2 0 -3 24 -3 53 1 74 -1 87 -11 87 -5 0 -9 -46 -9 -102z"/>
<path d="M1135 349 c-4 -6 -5 -13 -2 -16 7 -7 27 6 27 18 0 12 -17 12 -25 -2z"/>
<path d="M1210 256 c0 -59 4 -108 10 -111 10 -6 12 7 12 100 0 96 -2 115 -12
115 -6 0 -10 -41 -10 -104z"/>
<path d="M1290 250 c0 -67 4 -110 10 -110 6 0 10 43 10 110 0 67 -4 110 -10
110 -6 0 -10 -43 -10 -110z"/>
<path d="M807 339 c-24 -14 -37 -50 -26 -71 5 -10 26 -22 47 -27 57 -16 80
-36 66 -58 -12 -19 -60 -24 -101 -9 -14 4 -23 3 -23 -3 0 -15 68 -34 98 -26
37 9 52 24 52 51 0 26 -25 45 -82 64 -30 9 -38 17 -38 35 0 19 7 25 34 30 19
4 43 2 55 -4 14 -8 21 -8 21 -1 0 12 -42 30 -68 30 -9 0 -25 -5 -35 -11z"/>
<path d="M1139 294 c-3 -5 -5 -38 -5 -74 1 -84 21 -97 21 -13 1 61 -7 105 -16
87z"/>
</g>
</svg>
